<svg width="260" height="86" viewBox="0 0 260 86" xmlns="http://www.w3.org/2000/svg"><g id="g18"><path id="path4" d="M122.1 32H110c-4.9 0-8.9 4.1-8.9 9.1v5.7c0 5 4 9.1 8.9 9.1h12.1c4.9 0 8.9-4.1 8.9-9.1v-5.7c0-5-4-9.1-8.9-9.1zm3.2 14.1c0 2.5-2 4.6-4.5 4.6h-9.6c-2.5 0-4.5-2.1-4.5-4.6v-4.2c0-2.7 1.7-4.6 4.5-4.6h9.6c2.7 0 4.5 1.9 4.5 4.6v4.2z" class="st2"/><path id="path6" d="M55.1 32H42.9C38 32 34 36.1 34 41.2v5.7c0 5 4 9.1 8.9 9.1H55c4.9 0 8.9-4.1 8.9-9.1v-5.7C64 36.1 60 32 55.1 32zm3.2 14.1c0 2.5-2 4.6-4.5 4.6h-9.6c-2.5 0-4.5-2.1-4.5-4.6v-4.2c0-2.7 1.7-4.6 4.5-4.6h9.6c2.7 0 4.5 1.9 4.5 4.6v4.2z" class="st2"/><path id="path8" d="M142.1 56V42c0-2.7 1.8-4.6 4.7-4.6h9.4c2.9 0 4.7 1.9 4.7 4.6v14h6.1V41.3c0-5.1-4.3-9.3-9.5-9.3h-12.1c-5.2 0-9.5 4.2-9.5 9.3V56h6.2z" class="st2"/><path id="path10" d="M174.1 51h-1.2c-1.1 0-1.9.9-1.9 1.9V54c0 1.1.9 1.9 1.9 1.9h1.2c1.1 0 1.9-.9 1.9-1.9v-1c0-1.1-.9-2-1.9-2" class="st2"/><path id="path12" d="M220.1 32v14c0 2.7-1.8 4.6-4.6 4.6h-7.8c-2.8 0-4.6-1.9-4.6-4.6V32H197v14.7c0 5.1 4.2 9.3 9.3 9.3h10.4c5.1 0 9.3-4.2 9.3-9.3V32h-5.9z" class="st2"/><path id="path14" d="M190.8 37.5h2.2l1-5.5h-4.5c-5.2 0-9.5 4.2-9.5 9.4V56h6.1V42.2c0-2.7 1.8-4.7 4.7-4.7" class="st2"/><path id="path16" d="M95.9 50.6h-17l16.8-12.7c.8-.6 1.3-1.6 1.3-2.6 0-1.7-1.3-3.1-3.3-3.3H69.1v.1l.9 5.4h17L70.3 50.2c-.8.6-1.3 1.6-1.3 2.6 0 1.8 1.3 3.3 3.5 3.3h24.4V56l-1-5.4z" class="st2"/></g></svg>