<svg width="161" height="21" viewBox="0 0 161 21" xmlns="http://www.w3.org/2000/svg"><path d="M100.574 12.715a4.08 4.08 0 0 1-4.076-4.076 4.08 4.08 0 0 1 4.076-4.075 4.081 4.081 0 0 1 4.077 4.075 4.082 4.082 0 0 1-4.077 4.076zm0-12.54a8.462 8.462 0 0 0-8.463 8.464 8.462 8.462 0 0 0 8.463 8.465c4.68 0 8.47-3.79 8.47-8.465 0-4.674-3.79-8.463-8.47-8.463zM60.498 12.089c1.02-.15 3.005-.443 3.318-.494.424-.07.49-.524.345-.746a4.05 4.05 0 0 1-.653-2.21 4.08 4.08 0 0 1 4.076-4.074 4.082 4.082 0 0 1 4.079 4.075 4.083 4.083 0 0 1-3.533 4.038s-5.918.876-6.4.952c-.453.072-.523.592-.234.89 1.543 1.59 6.088 6.17 6.088 6.17s4.528-4.567 6.069-6.143a8.44 8.44 0 0 0 2.403-5.907c0-4.674-3.794-8.463-8.472-8.463a8.463 8.463 0 0 0-7.932 11.416c.115.31.409.56.846.496zm54.514 4.754c.42 0 .76-.32.76-.727v-4.748l1.31-.783 3.043 5.89c.124.234.375.368.659.368h3.724c.432 0 .54-.466.417-.69-.124-.224-4.688-8.345-4.688-8.345s4.562-6.469 4.677-6.644c.118-.174.06-.69-.406-.69h-3.554a.747.747 0 0 0-.613.324c-.151.208-3.26 4.764-3.26 4.764l-1.31.79V1.236c0-.42-.339-.762-.763-.762h-2.914c-.434 0-.765.31-.765.781V16.08c0 .482.359.762.772.762h2.91zM159.61.474h-2.936c-.43 0-.745.385-.745.765v8.814c0 1.158-.216 1.998-.65 2.521-.436.524-1.07.784-1.917.784-.846 0-1.484-.26-1.916-.784-.432-.523-.65-1.363-.65-2.521V1.239c0-.38-.315-.765-.744-.765h-2.937c-.467 0-.77.385-.77.787v9.14c0 2.144.602 3.787 1.8 4.93 1.2 1.144 2.983 1.716 5.217 1.716 2.232 0 4.017-.572 5.217-1.716 1.199-1.143 1.797-2.786 1.797-4.93V1.26c0-.402-.303-.787-.766-.787zm-29.322 14.491a2.153 2.153 0 1 0-4.305 0 2.153 2.153 0 0 0 4.305 0zm7.773-7.308h-2.209V3.821h2.393c1.516 0 2.378.77 2.378 1.797 0 1.364-1.017 2.039-2.562 2.039zm7.013 8.43c-.176-.254-3.965-5.68-3.965-5.68 2.756-.605 3.8-2.533 3.8-4.937 0-3.224-2.114-4.996-6.566-4.996h-6.033c-.44 0-.75.34-.75.755v14.88c0 .404.335.733.754.733h2.774c.417 0 .764-.331.764-.711v-5.246h1.135s3.765 5.436 3.907 5.638c.144.204.314.319.634.319h3.14c.474 0 .585-.5.406-.756zM48.594 3.82h2.392c1.516 0 2.376.77 2.376 1.797 0 1.364-1.015 2.039-2.56 2.039h-2.209V3.821zm0 7.064h1.133s3.764 5.436 3.908 5.638c.143.204.31.319.633.319h3.14c.475 0 .585-.5.408-.756-.178-.253-3.964-5.679-3.964-5.679 2.754-.605 3.797-2.533 3.797-4.937 0-3.224-2.116-4.996-6.564-4.996h-6.034a.74.74 0 0 0-.752.755v14.88c0 .404.337.733.755.733h2.772c.418 0 .767-.331.767-.711v-5.246zm-39.947 1.83A4.081 4.081 0 0 1 4.569 8.64a4.08 4.08 0 0 1 4.078-4.075 4.081 4.081 0 0 1 4.077 4.075 4.082 4.082 0 0 1-4.077 4.076zm0-12.54a8.464 8.464 0 1 0 0 16.929c4.677 0 8.47-3.79 8.47-8.465 0-4.674-3.793-8.463-8.47-8.463zm9.65 16.059c.652.274 1.358.514 1.902.626.742.155 1.66.231 2.754.231 1.313 0 2.457-.22 3.43-.659.976-.437 1.722-1.052 2.24-1.844.516-.789.775-1.697.775-2.716 0-1.109-.273-2.03-.826-2.76-.551-.732-1.535-1.416-2.952-2.055-1.478-.673-2.382-1.138-2.718-1.392-.334-.255-.5-.545-.5-.867 0-.3.132-.55.395-.753.262-.202.683-.304 1.259-.304.934 0 2.022.25 3.244.74.395.157.845.037 1.031-.422.286-.709.68-1.713.782-1.974a.76.76 0 0 0-.433-1.015C27.158.48 25.662.187 24.19.187c-1.926 0-3.441.425-4.543 1.27-1.103.848-1.652 2.029-1.652 3.543 0 .81.128 1.51.387 2.104a4.35 4.35 0 0 0 1.192 1.575c.534.457 1.34.929 2.414 1.418 1.183.53 1.913.884 2.187 1.055.273.174.472.345.596.513a.977.977 0 0 1 .185.59c0 .36-.154.651-.46.883-.31.229-.793.342-1.452.342-.765 0-1.597-.16-2.512-.402a8.322 8.322 0 0 1-.856-.28c-.3-.114-.783-.088-.995.448-.24.596-.563 1.407-.792 1.982-.217.537.101.878.407 1.006zm68.34.098c.072-.214 4.035-12.308 4.993-15.228.11-.334-.148-.63-.468-.63h-3.701c-.438 0-.656.3-.731.558l-2.842 10.1S81.122 1.263 81.05 1.01a.746.746 0 0 0-.737-.537h-3.709c-.343 0-.59.267-.461.66.178.536 4.857 14.885 4.956 15.194a.74.74 0 0 0 .722.514h4.108c.41 0 .63-.265.709-.51zM42.746 3.333V1.236a.736.736 0 0 0-.755-.762H31.111c-.503 0-.77.397-.77.781v2.086c0 .418.385.75.786.75h3.212v11.978c0 .444.29.773.746.773h2.909c.439 0 .767-.32.767-.747V4.09h3.254c.343 0 .73-.311.73-.758z" fill="#1465a6" fill-rule="evenodd"/></svg>