<svg width="105" height="35" viewBox="0 0 105 35" xmlns="http://www.w3.org/2000/svg"><path fill="#647883" fill-rule="evenodd" d="M18.066 6.457l-6.178 18.535-5.63-18.457H0l9.19 27.528h4.965l6.1-18.26 5.984 18.26h4.96l9.23-27.528h-6.14l-5.63 18.457-6.22-18.535m18.35 27.606V14.55h5.51v4.303c1.703-5.04 7.43-4.29 7.43-4.29v5.395s-7.43-.55-7.43 5.49v8.615h-5.51zm15.52 0V22.047l5.513-5.26v17.276m4.626 0V12.517l5.512-5.504v14.655l6.726-7.117h6.763l-8.484 8.8 9.814 10.72h-7.117l-7.704-8.403v8.406" clip-rule="evenodd"/> <path fill="none" d="M85 13.485h20v21H85z"/> <path fill="#647883" fill-rule="evenodd" d="M88.706 31.527c-2.046-1.853-3.087-4.323-3.087-7.372 0-2.856.92-5.25 2.77-7.18 1.85-1.968 4.283-2.933 7.254-2.933 2.82 0 5.017 1.004 6.677 2.973 1.66 1.968 2.51 4.36 2.51 7.217v1.428H91.02c.58 2.625 3.05 4.014 6.446 4.014 2.162 0 4.207-.58 6.176-1.698v4.36c-1.737 1.314-4.17 1.97-7.333 1.97-3.01 0-5.56-.926-7.61-2.78zm10.768-9.34c-.115-2.124-1.62-3.86-4.053-3.86-2.46 0-4.13 1.582-4.4 3.86h8.46z" clip-rule="evenodd"/> <path fill="#00A550" fill-rule="evenodd" d="M67.522 0l-12.33 12.33 3.664 3.666L74.85 0" clip-rule="evenodd"/> <path fill="#A5CD38" fill-rule="evenodd" d="M56.654 6.465h-7.33l9.53 9.53 3.666-3.664" clip-rule="evenodd"/> </svg>